<svg xmlns="http://www.w3.org/2000/svg" xmlns:xlink="http://www.w3.org/1999/xlink" width="240" height="163" viewBox="0 0 240 163">
  <defs>
    <filter id="Rectangle_4005" x="0" y="0" width="240" height="163" filterUnits="userSpaceOnUse">
      <feOffset dy="3" input="SourceAlpha"/>
      <feGaussianBlur stdDeviation="3" result="blur"/>
      <feFlood flood-opacity="0.161"/>
      <feComposite operator="in" in2="blur"/>
      <feComposite in="SourceGraphic"/>
    </filter>
    <filter id="Ellipse_29" x="59" y="31.001" width="50" height="49" filterUnits="userSpaceOnUse">
      <feOffset dy="3" input="SourceAlpha"/>
      <feGaussianBlur stdDeviation="3" result="blur-2"/>
      <feFlood flood-opacity="0.161"/>
      <feComposite operator="in" in2="blur-2"/>
      <feComposite in="SourceGraphic"/>
    </filter>
    <filter id="Ellipse_30" x="131" y="31.001" width="50" height="49" filterUnits="userSpaceOnUse">
      <feOffset dy="3" input="SourceAlpha"/>
      <feGaussianBlur stdDeviation="3" result="blur-3"/>
      <feFlood flood-opacity="0.161"/>
      <feComposite operator="in" in2="blur-3"/>
      <feComposite in="SourceGraphic"/>
    </filter>
    <filter id="Rectangle_4006" x="45.274" y="80.802" width="149.028" height="57.08" filterUnits="userSpaceOnUse">
      <feOffset dy="3" input="SourceAlpha"/>
      <feGaussianBlur stdDeviation="3" result="blur-4"/>
      <feFlood flood-opacity="0.161"/>
      <feComposite operator="in" in2="blur-4"/>
      <feComposite in="SourceGraphic"/>
    </filter>
  </defs>
  <g id="Group_42567" data-name="Group 42567" transform="translate(-13684 -10590.32)">
    <g transform="matrix(1, 0, 0, 1, 13684, 10590.32)" filter="url(#Rectangle_4005)">
      <rect id="Rectangle_4005-2" data-name="Rectangle 4005" width="222" height="145" rx="30" transform="translate(9 6)" fill="#ee9519"/>
    </g>
    <g id="Group_42566" data-name="Group 42566" transform="translate(13751.539 10627.557)">
      <g transform="matrix(1, 0, 0, 1, -67.54, -37.24)" filter="url(#Ellipse_29)">
        <ellipse id="Ellipse_29-2" data-name="Ellipse 29" cx="16" cy="15.5" rx="16" ry="15.5" transform="translate(68 37)" fill="#fff"/>
      </g>
      <g transform="matrix(1, 0, 0, 1, -67.54, -37.24)" filter="url(#Ellipse_30)">
        <ellipse id="Ellipse_30-2" data-name="Ellipse 30" cx="16" cy="15.5" rx="16" ry="15.5" transform="translate(140 37)" fill="#fff"/>
      </g>
    </g>
    <g transform="matrix(1, 0, 0, 1, 13684, 10590.32)" filter="url(#Rectangle_4006)">
      <rect id="Rectangle_4006-2" data-name="Rectangle 4006" width="131.4" height="12.024" transform="matrix(0.98, -0.21, 0.21, 0.98, 54.27, 114.12)" fill="#fff"/>
    </g>
  </g>
</svg>
