<svg xmlns="http://www.w3.org/2000/svg" width="26.825" height="26.825" viewBox="0 0 26.825 26.825">
  <g id="Path_6" data-name="Path 6" fill="none">
    <path d="M13.413,0A13.413,13.413,0,1,1,0,13.413,13.413,13.413,0,0,1,13.413,0Z" stroke="none"/>
    <path d="M 13.41259574890137 3.999996185302734 C 8.222465515136719 3.999996185302734 3.999996185302734 8.222465515136719 3.999996185302734 13.4125862121582 C 3.999996185302734 18.60270690917969 8.222465515136719 22.82517623901367 13.41259574890137 22.82517623901367 C 18.60272598266602 22.82517623901367 22.8251953125 18.60270690917969 22.8251953125 13.4125862121582 C 22.8251953125 8.222465515136719 18.60272598266602 3.999996185302734 13.41259574890137 3.999996185302734 M 13.41259574890137 -3.814697265625e-06 C 20.82016563415527 -3.814697265625e-06 26.8251953125 6.005016326904297 26.8251953125 13.4125862121582 C 26.8251953125 20.82015609741211 20.82016563415527 26.82517623901367 13.41259574890137 26.82517623901367 C 6.005025863647461 26.82517623901367 -3.814697265625e-06 20.82015609741211 -3.814697265625e-06 13.4125862121582 C -3.814697265625e-06 6.005016326904297 6.005025863647461 -3.814697265625e-06 13.41259574890137 -3.814697265625e-06 Z" stroke="none" fill="#25a0ed"/>
  </g>
</svg>
